<svg width="32" height="39" viewBox="0 0 32 39" fill="none" xmlns="http://www.w3.org/2000/svg">
<path d="M27.3151 17.1367C27.3334 15.588 27.0513 14.0508 26.485 12.6145C25.9187 11.1782 25.0795 9.87122 24.0161 8.76937C22.9527 7.66751 21.6863 6.79269 20.2902 6.19562C18.894 5.59855 17.396 5.29111 15.883 5.29111C14.3699 5.29111 12.8719 5.59855 11.4758 6.19562C10.0797 6.79269 8.81323 7.66751 7.74984 8.76937C6.68645 9.87122 5.84728 11.1782 5.28098 12.6145C4.71469 14.0508 4.43252 15.588 4.45085 17.1367V23.5837C4.45085 30.8396 10.3309 37.6507 15.8821 37.6507C21.4334 37.6507 27.3151 30.8396 27.3151 23.5837V17.1367Z" stroke="white" stroke-width="1.2" stroke-linejoin="round"/>
<path d="M27.3151 20.6694C27.3155 19.9936 27.2594 19.3191 27.1474 18.6532C26.6585 15.7645 25.1283 13.1689 22.8595 11.3798C20.5907 9.59083 17.7486 8.73876 14.8955 8.99223C12.0424 9.2457 9.3861 10.5862 7.45227 12.7486C5.51844 14.911 4.44793 17.7377 4.45253 20.6694V17.1367C4.4342 15.588 4.71636 14.0508 5.28266 12.6145C5.84896 11.1782 6.68812 9.87122 7.75151 8.76937C8.8149 7.66751 10.0814 6.79269 11.4775 6.19562C12.8736 5.59855 14.3716 5.29111 15.8847 5.29111C17.3977 5.29111 18.8957 5.59855 20.2918 6.19562C21.688 6.79269 22.9544 7.66751 24.0178 8.76937C25.0812 9.87122 25.9204 11.1782 26.4867 12.6145C27.053 14.0508 27.3351 15.588 27.3168 17.1367L27.3151 20.6694Z" stroke="white" stroke-width="1.2" stroke-linejoin="round"/>
<path d="M4.45086 25.2856C3.53564 25.2856 2.6579 24.9134 2.01073 24.2509C1.36357 23.5884 1 22.6899 1 21.753C1 20.8161 1.36357 19.9175 2.01073 19.255C2.6579 18.5926 3.53564 18.2204 4.45086 18.2204V25.2856Z" stroke="white" stroke-width="1.2" stroke-linejoin="round"/>
<path d="M27.3151 18.2204C28.2303 18.2204 29.1081 18.5926 29.7552 19.255C30.4024 19.9175 30.766 20.8161 30.766 21.753C30.766 22.6899 30.4024 23.5884 29.7552 24.2509C29.1081 24.9134 28.2303 25.2856 27.3151 25.2856V18.2204Z" stroke="white" stroke-width="1.2" stroke-linejoin="round"/>
<path d="M18.6871 31.2277C17.0414 31.9937 14.7246 31.9937 13.0789 31.2277" stroke="white" stroke-width="1.2" stroke-linejoin="round"/>
<path d="M15.8822 23.242V27.9081" stroke="white" stroke-width="1.2" stroke-linejoin="round"/>
<path d="M21.2958 23.8842C21.772 23.8842 22.1581 23.489 22.1581 23.0015C22.1581 22.514 21.772 22.1188 21.2958 22.1188C20.8196 22.1188 20.4335 22.514 20.4335 23.0015C20.4335 23.489 20.8196 23.8842 21.2958 23.8842Z" fill="white"/>
<path d="M8.52914 19.1134C9.1116 18.7422 9.78402 18.5454 10.4702 18.5454C11.1563 18.5454 11.8287 18.7422 12.4112 19.1134" stroke="white" stroke-width="1.2" stroke-linejoin="round"/>
<path d="M10.4702 23.8842C10.9464 23.8842 11.3325 23.489 11.3325 23.0015C11.3325 22.514 10.9464 22.1188 10.4702 22.1188C9.99393 22.1188 9.60786 22.514 9.60786 23.0015C9.60786 23.489 9.99393 23.8842 10.4702 23.8842Z" fill="white"/>
<path d="M22.3494 7.47136C22.3109 5.74162 21.6126 4.09599 20.404 2.88657C19.1953 1.67715 17.5723 1 15.8821 1C14.192 1 12.569 1.67715 11.3603 2.88657C10.1517 4.09599 9.45341 5.74162 9.41492 7.47136C11.3175 6.13104 13.5726 5.41343 15.8821 5.41343C18.1917 5.41343 20.4468 6.13104 22.3494 7.47136Z" stroke="white" stroke-width="1.2" stroke-linejoin="round"/>
<path d="M4.45087 20.6693C8.53923 16.4841 15.8822 8.94659 15.8822 8.94659C14.3797 8.94795 12.8921 9.25224 11.5045 9.84209C10.1169 10.4319 8.85634 11.2958 7.79485 12.3844C6.73336 13.4729 5.8917 14.7649 5.31794 16.1864C4.74418 17.6079 4.44955 19.1312 4.45087 20.6693Z" stroke="white" stroke-width="1.2" stroke-linejoin="round"/>
<path d="M27.3151 20.6693C23.2268 16.4841 15.8822 8.94659 15.8822 8.94659C17.3848 8.94772 18.8725 9.25185 20.2603 9.8416C21.6482 10.4314 22.9089 11.2952 23.9706 12.3838C25.0322 13.4723 25.8741 14.7644 26.4479 16.186C27.0218 17.6077 27.3165 19.1311 27.3151 20.6693Z" stroke="white" stroke-width="1.2" stroke-linejoin="round"/>
<path d="M19.3129 19.1134C19.8956 18.7422 20.5683 18.5454 21.2547 18.5454C21.9411 18.5454 22.6138 18.7422 23.1966 19.1134" stroke="white" stroke-width="1.2" stroke-linejoin="round"/>
</svg>
